<?xml version="1.0" standalone="no"?>
<!DOCTYPE svg PUBLIC "-//W3C//DTD SVG 20010904//EN"
 "http://www.w3.org/TR/2001/REC-SVG-20010904/DTD/svg10.dtd">
<svg version="1.0" xmlns="http://www.w3.org/2000/svg"
 width="700.000000pt" height="700.000000pt" viewBox="0 0 700.000000 700.000000"
 preserveAspectRatio="xMidYMid meet">
<metadata>
Created by potrace 1.11, written by Peter Selinger 2001-2013
</metadata>
<g transform="translate(0.000000,700.000000) scale(0.100000,-0.100000)"
fill="#000000" stroke="none">
<path d="M3328 6995 c-2 -1 -34 -6 -73 -9 -80 -8 -125 -14 -158 -20 -12 -2
-40 -7 -62 -11 -291 -51 -653 -193 -943 -369 l-88 -53 -45 32 c-98 73 -247
134 -364 150 -264 36 -568 -76 -802 -296 -95 -89 -208 -228 -297 -364 -45 -70
-136 -248 -136 -268 0 -7 -4 -17 -9 -22 -4 -6 -15 -37 -24 -70 -69 -258 -28
-481 129 -685 42 -56 132 -145 192 -191 l34 -26 -32 -34 c-79 -85 -246 -323
-299 -426 -11 -23 -21 -54 -21 -68 0 -54 45 -104 92 -105 15 0 29 -4 32 -9 3
-5 -15 -46 -41 -92 -111 -201 -279 -549 -333 -689 -96 -250 -100 -370 -15
-406 35 -14 59 -12 124 10 36 13 41 13 41 0 0 -8 -4 -22 -10 -32 -34 -61 -142
-392 -175 -540 -31 -134 -39 -197 -40 -294 0 -70 2 -80 26 -104 40 -40 89 -41
188 -5 47 17 91 31 98 31 10 0 13 -82 13 -425 0 -463 0 -466 56 -495 21 -12
72 -15 241 -15 117 0 213 -3 213 -6 0 -4 -18 -80 -40 -170 -37 -154 -38 -164
-24 -195 31 -64 45 -68 282 -68 138 -1 211 -5 208 -11 -2 -6 -17 -53 -34 -106
-36 -112 -32 -153 17 -189 25 -17 242 -94 366 -129 121 -34 481 -110 600 -127
28 -3 57 -8 67 -10 41 -7 124 -17 243 -30 33 -3 71 -8 85 -10 14 -2 63 -7 110
-10 47 -3 99 -7 115 -9 80 -11 352 -20 655 -20 362 0 585 8 800 30 30 3 82 8
115 11 53 4 312 37 390 50 17 2 77 14 135 25 58 12 116 23 130 25 64 11 94 18
225 50 77 19 209 58 293 86 225 74 241 97 190 258 -17 52 -32 100 -34 105 -3
7 64 10 200 10 219 0 253 6 281 49 24 36 21 67 -19 229 -21 82 -35 151 -32
154 3 3 101 6 218 7 232 2 251 6 276 62 9 17 12 150 12 449 0 234 3 425 8 425
4 0 51 -14 104 -31 110 -36 150 -34 189 7 19 21 24 37 26 87 2 74 -19 220 -48
337 -12 47 -22 90 -23 95 -7 31 -90 274 -120 353 -20 52 -36 98 -36 102 0 5
24 1 54 -10 30 -10 63 -17 73 -15 10 2 23 4 29 4 16 1 49 32 63 60 26 49 -9
204 -95 415 -47 114 -227 481 -307 625 -46 82 -54 103 -39 99 4 -1 24 1 44 5
49 10 83 62 75 116 -4 31 -121 239 -147 261 -3 3 -27 35 -53 72 -27 38 -70 94
-98 125 l-50 57 33 25 c64 49 151 137 199 201 159 209 196 455 108 720 -47
143 -167 348 -296 510 -274 340 -621 508 -963 464 -108 -14 -269 -81 -364
-152 l-39 -29 -101 60 c-181 107 -380 201 -536 254 -41 13 -84 28 -95 33 -11
5 -31 11 -45 14 -14 4 -68 17 -120 31 -52 13 -115 27 -140 30 -24 4 -47 8 -51
11 -3 2 -30 6 -60 9 -30 3 -67 8 -84 11 -34 5 -432 14 -437 9z m437 -229 c137
-22 224 -37 255 -45 168 -45 254 -73 390 -128 133 -54 420 -204 420 -219 0 -2
-22 -37 -49 -77 -44 -65 -84 -142 -119 -230 -14 -34 -49 -169 -56 -221 -4 -26
-19 -53 -44 -80 -92 -100 -184 -246 -184 -292 0 -113 137 -154 199 -59 11 16
38 57 59 90 51 81 202 229 294 289 41 27 87 58 102 68 15 10 30 18 33 18 3 0
-10 -30 -29 -67 -70 -140 -208 -548 -220 -651 -8 -70 43 -133 106 -132 13 1
77 23 143 50 66 26 121 47 122 46 1 -1 -11 -37 -27 -79 -106 -271 -80 -507 72
-660 86 -87 213 -138 277 -111 41 17 72 69 65 109 -8 48 -37 78 -99 102 -80
31 -126 77 -145 143 -8 26 -6 29 8 21 57 -29 252 -58 368 -55 137 3 216 17
342 60 l73 26 55 -59 c51 -53 170 -211 180 -237 3 -7 -7 -13 -23 -14 -41 -3
-76 -33 -91 -77 -14 -44 -8 -61 84 -220 159 -277 427 -825 411 -841 -2 -2 -37
7 -77 21 -86 29 -110 31 -151 9 -57 -29 -68 -98 -29 -175 30 -57 145 -346 178
-444 60 -179 118 -405 104 -405 -4 0 -48 13 -99 30 -92 29 -119 31 -159 9 -47
-25 -48 -36 -50 -514 l-1 -450 -204 -2 c-112 -1 -221 -2 -241 -3 -42 0 -92
-42 -100 -83 -3 -13 12 -93 33 -178 21 -85 38 -159 39 -164 0 -7 -72 -10 -206
-10 -229 1 -268 -7 -292 -59 -18 -41 -15 -62 28 -191 22 -65 40 -120 40 -122
0 -2 -162 -54 -185 -59 -5 -1 -62 -15 -125 -32 -101 -26 -151 -38 -250 -57
-14 -3 -36 -7 -50 -10 -111 -23 -369 -62 -460 -71 -30 -3 -65 -7 -76 -9 -12
-2 -61 -6 -110 -10 -49 -4 -99 -8 -112 -10 -72 -12 -361 -20 -682 -20 -328 0
-446 3 -675 20 -87 6 -235 20 -315 30 -19 3 -57 7 -85 10 -61 7 -68 8 -225 35
-179 30 -255 46 -432 90 -145 37 -318 87 -318 93 0 2 18 57 40 122 44 131 47
153 26 193 -27 52 -49 56 -282 57 -145 0 -214 3 -214 11 0 6 16 71 35 145 39
150 43 204 17 235 -33 42 -53 45 -292 45 -207 1 -230 3 -231 17 0 10 -2 215
-3 457 -1 242 -5 447 -9 455 -13 25 -54 50 -88 54 -20 2 -66 -8 -113 -25 -45
-16 -86 -29 -93 -29 -30 0 90 416 180 623 8 17 23 52 33 77 10 25 33 78 51
118 18 40 35 85 37 99 11 59 -45 123 -106 123 -13 0 -56 -12 -97 -25 -41 -14
-76 -23 -78 -21 -3 3 15 52 37 101 5 11 20 45 33 75 88 194 231 474 366 711
56 98 68 127 64 152 -9 59 -44 95 -98 99 -14 1 -24 7 -21 14 18 46 220 294
240 294 3 0 28 -9 56 -20 45 -18 76 -27 154 -45 81 -19 264 -25 368 -11 31 4
88 16 127 26 39 11 75 20 81 20 17 0 -37 -96 -69 -123 -17 -14 -52 -32 -79
-41 -70 -24 -97 -55 -95 -113 3 -83 67 -122 158 -95 143 41 245 142 295 290
22 69 31 186 19 260 -16 99 -21 118 -54 206 -19 50 -33 91 -32 92 2 3 126 -46
187 -73 52 -23 85 -26 122 -10 43 18 71 71 63 119 -21 122 -137 468 -211 626
l-43 94 47 -28 c147 -84 326 -248 392 -358 76 -126 122 -155 193 -121 59 28
76 90 42 155 -18 37 -91 147 -109 166 -6 7 -19 22 -30 35 -10 13 -29 35 -42
49 -13 14 -26 43 -29 65 -24 166 -105 361 -202 491 -13 17 -23 33 -23 36 0 7
117 76 220 130 77 40 254 116 360 153 78 27 283 80 349 90 20 3 48 7 61 10 13
3 54 7 90 11 36 3 67 7 68 9 6 6 405 -3 447 -9z m-2105 -292 c166 -52 323
-191 425 -376 l36 -66 -133 67 c-158 79 -295 131 -349 131 -59 0 -104 -44
-104 -102 0 -38 8 -54 57 -119 71 -93 143 -218 192 -334 21 -49 44 -103 52
-120 25 -56 76 -216 70 -222 -3 -3 -52 14 -108 37 -136 56 -218 88 -246 95
-33 9 -88 -12 -107 -41 -38 -58 -28 -96 54 -209 56 -76 147 -252 157 -300 6
-30 4 -31 -58 -53 -97 -33 -154 -44 -263 -47 -240 -7 -460 81 -636 255 -249
245 -248 524 4 900 151 226 302 368 484 457 165 80 320 96 473 47z m3995 10
c88 -19 231 -87 315 -152 200 -152 403 -432 481 -663 26 -77 32 -110 32 -184
1 -103 -3 -130 -30 -201 -29 -74 -92 -161 -169 -233 -170 -158 -381 -240 -604
-236 -112 2 -147 8 -258 42 l-84 26 6 31 c10 51 102 225 165 314 33 46 62 96
66 111 12 54 -28 114 -83 126 -34 7 -53 1 -241 -74 -84 -34 -156 -60 -159 -57
-5 6 58 194 87 259 11 23 32 71 47 107 41 95 117 225 180 307 77 101 80 155
12 206 -35 26 -68 24 -162 -7 -86 -29 -292 -125 -337 -157 -37 -26 -37 -12 2
59 139 253 392 413 624 394 22 -2 72 -10 110 -18z"/>
<path d="M2368 4367 c-67 -16 -124 -91 -155 -202 -8 -27 -17 -107 -20 -177
-10 -213 24 -355 102 -434 111 -110 244 -45 301 147 39 129 36 356 -6 491 -41
132 -125 199 -222 175z"/>
<path d="M4565 4370 c-91 -19 -161 -130 -181 -287 -12 -89 -7 -262 10 -340 61
-294 301 -327 387 -54 30 96 38 317 15 430 -36 177 -125 273 -231 251z"/>
<path d="M3035 2183 c-32 -8 -73 -52 -78 -86 -8 -52 18 -89 151 -219 137 -134
160 -145 222 -113 53 27 73 91 46 143 -20 38 -260 272 -279 272 -8 0 -21 2
-29 4 -7 2 -22 1 -33 -1z"/>
<path d="M3905 2179 c-32 -9 -257 -226 -281 -271 -18 -35 -18 -62 1 -98 31
-60 104 -74 162 -32 52 37 242 238 253 266 20 54 -22 127 -80 139 -14 2 -38 1
-55 -4z"/>
<path d="M3444 1621 c-45 -27 -54 -65 -54 -226 l0 -141 -40 -26 c-129 -85
-283 -106 -411 -54 -36 14 -78 26 -93 26 -71 0 -124 -66 -106 -132 13 -44 31
-61 102 -92 115 -51 267 -65 389 -36 62 15 178 64 229 97 l35 22 105 -52 c117
-59 191 -79 295 -82 130 -3 313 52 349 107 33 51 17 127 -33 153 -42 21 -68
19 -147 -11 -131 -50 -274 -33 -406 49 l-48 29 0 144 c0 164 -10 203 -59 228
-40 21 -69 20 -107 -3z"/>
<path d="M3363 868 c-101 -26 -104 -173 -4 -205 14 -5 83 -8 153 -7 141 1 165
10 193 64 22 42 11 93 -27 125 -16 14 -35 26 -41 26 -55 5 -250 3 -274 -3z"/>
</g>
</svg>
