<?xml version="1.0" encoding="UTF-8" standalone="no"?>
<svg width="512px" height="512px" viewBox="0 0 512 512" version="1.1" xmlns="http://www.w3.org/2000/svg" xmlns:xlink="http://www.w3.org/1999/xlink">
    <!-- Generator: Sketch 39.1 (31720) - http://www.bohemiancoding.com/sketch -->
    <title>guinea_logo</title>
    <desc>Created with Sketch.</desc>
    <defs></defs>
    <g id="Page-1" stroke="none" stroke-width="1" fill="none" fill-rule="evenodd">
        <g id="guinea_logo">
            <path d="M501.47,295.587 C503.909,296.4 506.592,295.991 508.678,294.487 C510.764,292.984 512,290.569 512,287.997 C512,271.116 490.104,229.829 477.822,207.997 L480,207.997 C482.834,207.997 485.458,206.497 486.895,204.054 C488.333,201.611 488.37,198.59 486.993,196.112 C485.494,193.414 474.517,174.011 462.129,161.355 C465.799,158.753 469.301,155.836 472.569,152.568 C499.75,125.387 496.23,91.158 462.107,50.832 C446.492,32.378 426.015,21.269 405.925,20.353 C391.369,19.69 377.472,24.466 365.324,34.201 C365.011,33.925 364.68,33.662 364.316,33.431 C329.375,11.248 292.933,0 256,0 C219.078,0 182.645,11.242 147.712,33.414 C147.339,33.651 147,33.92 146.68,34.204 C134.533,24.467 120.64,19.692 106.074,20.353 C85.985,21.269 65.508,32.378 49.893,50.832 C15.77,91.158 12.251,125.387 39.432,152.568 C42.701,155.837 46.203,158.755 49.873,161.356 C37.485,174.011 26.507,193.416 25.008,196.114 C23.632,198.592 23.669,201.613 25.106,204.056 C26.542,206.5 29.166,208 32,208 L34.178,208 C21.896,229.832 0,271.119 0,288 C0,290.572 1.236,292.986 3.322,294.49 C5.408,295.994 8.091,296.403 10.53,295.59 L17.37,293.31 C10.056,311.047 0,339.215 0,360 C0,362.572 1.236,364.986 3.322,366.49 C5.408,367.994 8.091,368.403 10.53,367.59 L24,363.1 L24,424 C24,428.418 27.582,432 32,432 L61.754,432 L56.239,454.06 C55.642,456.45 56.178,458.982 57.695,460.924 C59.212,462.866 61.537,464 64,464 L92.9,464 L88.41,477.47 C87.114,481.358 88.966,485.597 92.699,487.287 C93.271,487.546 107.005,493.694 134.116,499.804 C158.805,505.368 199.991,512 256,512 C256.018,512 256.035,511.998 256.052,511.997 C312.034,511.993 353.203,505.364 377.884,499.801 C404.994,493.692 418.729,487.543 419.301,487.284 C423.034,485.594 424.886,481.355 423.59,477.467 L419.1,463.997 L448,463.997 C450.463,463.997 452.79,462.862 454.306,460.92 C455.822,458.978 456.359,456.446 455.762,454.056 L450.247,431.996 L480,431.996 C484.418,431.996 488,428.414 488,423.996 L488,363.096 L501.47,367.586 C503.909,368.399 506.592,367.99 508.678,366.486 C510.764,364.983 512,362.568 512,359.996 C512,339.211 501.944,311.043 494.63,293.306 L501.47,295.587 L501.47,295.587 Z" id="Shape" fill="#000000"></path>
            <path d="M405.197,36.336 C420.623,37.04 437.332,46.322 449.893,61.167 C487.462,105.567 474.371,128.139 461.255,141.254 C456.909,145.6 452.07,149.215 446.903,152.078 C445.186,152.317 443.564,153.111 442.311,154.383 C426.006,161.769 407.08,162.059 390.14,154.552 C392.27,146.771 396.953,136.906 406.307,124.921 C408.531,122.071 408.568,118.084 406.396,115.193 C404.225,112.303 400.386,111.227 397.029,112.57 L371.825,122.652 C376.431,107.399 385.067,83.986 398.006,69.283 C400.334,66.637 400.657,62.779 398.8,59.783 C396.943,56.787 393.344,55.359 389.939,56.268 C388.832,56.563 373.69,60.723 357.002,71.128 C360.195,63.505 364.831,56.564 370.7,50.788 C381.028,40.627 392.647,35.759 405.197,36.336 L405.197,36.336 Z" id="Path" fill="#FFFFFF"></path>
            <path d="M62.107,61.167 C74.669,46.322 91.377,37.04 106.803,36.336 C119.362,35.759 130.972,40.626 141.301,50.79 C147.17,56.565 151.806,63.507 154.999,71.13 C138.312,60.725 123.169,56.565 122.062,56.27 C118.655,55.362 115.058,56.79 113.201,59.785 C111.344,62.781 111.667,66.639 113.995,69.285 C126.904,83.954 135.55,107.385 140.166,122.65 L114.972,112.572 C111.615,111.23 107.776,112.304 105.605,115.195 C103.434,118.086 103.47,122.072 105.694,124.923 C115.048,136.908 119.731,146.773 121.861,154.554 C104.919,162.062 85.992,161.771 69.685,154.383 C68.433,153.115 66.816,152.322 65.103,152.083 C59.934,149.22 55.093,145.603 50.746,141.256 C37.629,128.139 24.538,105.567 62.107,61.167 L62.107,61.167 Z" id="Path" fill="#FFFFFF"></path>
            <path d="M495.008,348.568 L482.529,344.408 C480.09,343.595 477.407,344.004 475.321,345.508 C473.235,347.011 471.999,349.426 471.999,351.998 L471.999,415.998 L439.999,415.998 C437.536,415.998 435.209,417.133 433.693,419.075 C432.177,421.017 431.64,423.549 432.237,425.939 L437.752,447.999 L408,447.999 C405.428,447.999 403.014,449.235 401.51,451.321 C400.006,453.407 399.597,456.089 400.41,458.529 L405.998,475.293 C399.663,477.54 388.865,480.957 373.68,484.349 C349.887,489.664 310.156,495.999 255.999,495.999 C255.984,495.999 255.969,496.001 255.954,496.001 C201.821,495.998 162.105,489.664 138.319,484.351 C123.133,480.959 112.333,477.54 106.001,475.295 L111.589,458.531 C112.402,456.092 111.993,453.409 110.489,451.323 C108.986,449.237 106.571,448.001 103.999,448.001 L74.246,448.001 L79.761,425.941 C80.358,423.551 79.822,421.019 78.305,419.077 C76.788,417.135 74.463,416 72,416 L40,416 L40,352 C40,349.428 38.764,347.014 36.678,345.51 C34.592,344.006 31.91,343.597 29.47,344.41 L16.993,348.569 C21.403,320.477 38.995,283.907 39.199,283.488 C40.601,280.592 40.134,277.138 38.01,274.72 C35.887,272.303 32.523,271.391 29.47,272.409 L18.882,275.938 C25.68,256.739 43.032,224.225 54.896,204.054 C56.351,201.58 56.37,198.517 54.945,196.026 C53.52,193.537 50.87,192 48,192 L46.249,192 C51.803,183.577 58.61,174.581 64.449,169.551 C74.427,173.852 85.143,176.075 95.95,176.075 C104.953,176.075 114.012,174.538 122.748,171.421 C122.501,172.497 122.214,173.404 121.935,174.136 C119.886,179.533 115.736,183.177 110.55,184.132 C106.205,184.932 103.331,189.104 104.132,193.449 C104.842,197.304 108.206,200.001 111.99,200.001 C112.471,200.001 112.959,199.958 113.448,199.867 C124.106,197.904 132.87,190.408 136.892,179.816 C139.857,172.008 142.171,157.393 132.047,136.635 L149.027,143.427 C151.768,144.523 154.892,144.021 157.152,142.118 C159.411,140.215 160.438,137.223 159.823,134.334 C159.505,132.837 153.688,106.024 141.121,81.603 C153.694,88.542 168.369,99.524 176.923,115.733 C178.986,119.641 183.825,121.137 187.732,119.074 C191.64,117.011 193.135,112.172 191.073,108.265 C186.817,100.2 181.416,93.264 175.519,87.326 C175.513,87.254 175.514,87.183 175.506,87.111 C173.805,71.813 167.74,57.397 158.238,45.702 C189.965,25.996 222.844,16 256,16 C289.157,16 322.036,25.996 353.76,45.703 C344.258,57.398 338.194,71.814 336.492,87.112 C336.484,87.184 336.485,87.255 336.479,87.326 C330.582,93.264 325.181,100.201 320.924,108.266 C318.862,112.173 320.358,117.013 324.265,119.075 C328.172,121.136 333.012,119.641 335.074,115.734 C343.63,99.524 358.303,88.542 370.876,81.603 C358.31,106.024 352.493,132.838 352.174,134.335 C351.559,137.224 352.586,140.216 354.845,142.119 C357.104,144.021 360.227,144.524 362.97,143.428 L379.95,136.636 C369.826,157.394 372.14,172.01 375.105,179.817 C379.127,190.409 387.892,197.904 398.549,199.868 C399.039,199.958 399.526,200.002 400.007,200.002 C403.791,200.002 407.155,197.305 407.865,193.45 C408.665,189.105 405.792,184.933 401.447,184.133 C396.261,183.178 392.112,179.534 390.062,174.137 C389.784,173.405 389.496,172.498 389.249,171.422 C397.985,174.539 407.043,176.075 416.047,176.075 C426.859,176.075 437.581,173.849 447.563,169.544 C453.672,174.759 460.491,184.003 465.741,191.998 L464,191.998 C461.13,191.998 458.48,193.535 457.056,196.026 C455.631,198.517 455.65,201.581 457.105,204.054 C468.968,224.224 486.321,256.739 493.119,275.938 L482.531,272.409 C479.479,271.391 476.113,272.301 473.989,274.72 C471.866,277.138 471.398,280.593 472.802,283.489 C473.004,283.906 490.602,320.454 495.008,348.568 L495.008,348.568 Z" id="Path" fill="#FFFFFF"></path>
            <path d="M176,192 C168.265,192 160,200.406 160,224 C160,247.594 168.265,256 176,256 C183.735,256 192,247.594 192,224 C192,200.406 183.735,192 176,192 L176,192 Z" id="Shape" fill="#000000"></path>
            <path d="M336,192 C328.265,192 320,200.406 320,224 C320,247.594 328.265,256 336,256 C343.735,256 352,247.594 352,224 C352,200.406 343.735,192 336,192 L336,192 Z" id="Shape" fill="#000000"></path>
            <path d="M234.343,381.657 C235.905,383.219 237.952,384 240,384 C242.048,384 244.095,383.219 245.657,381.657 C248.782,378.533 248.782,373.468 245.657,370.344 L229.657,354.344 C226.533,351.22 221.468,351.22 218.344,354.344 C215.219,357.468 215.219,362.533 218.344,365.657 L234.343,381.657 L234.343,381.657 Z" id="Shape" fill="#000000"></path>
            <path d="M272,384 C274.047,384 276.095,383.219 277.657,381.657 L293.657,365.657 C296.782,362.533 296.782,357.468 293.657,354.344 C290.533,351.22 285.468,351.22 282.344,354.344 L266.344,370.344 C263.219,373.468 263.219,378.533 266.344,381.657 C267.905,383.219 269.953,384 272,384 L272,384 Z" id="Shape" fill="#000000"></path>
            <path d="M300.313,424.9 C284.058,433.341 269.59,424.569 264,420.292 L264,400 C264,395.582 260.418,392 256,392 C251.582,392 248,395.582 248,400 L248,420.295 C242.402,424.574 227.932,433.335 211.687,424.9 C207.765,422.864 202.937,424.392 200.9,428.314 C198.864,432.235 200.392,437.064 204.314,439.101 C211.89,443.035 219.137,444.526 225.781,444.526 C239.009,444.526 249.825,438.606 256,434.245 C262.175,438.606 272.99,444.526 286.22,444.526 C292.862,444.526 300.113,443.033 307.687,439.101 C311.608,437.065 313.136,432.236 311.101,428.314 C309.064,424.393 304.236,422.864 300.313,424.9 L300.313,424.9 Z" id="Shape" fill="#000000"></path>
            <path d="M264,448 L248,448 C243.582,448 240,451.582 240,456 C240,460.418 243.582,464 248,464 L264,464 C268.418,464 272,460.418 272,456 C272,451.582 268.418,448 264,448 L264,448 Z" id="Shape" fill="#000000"></path>
        </g>
    </g>
</svg>